# Blender v2.76 (sub 0) OBJ File: ''
# www.blender.org
mtllib jerry.mtl
o Plane.002_Plane.000
v -0.830000 1.160000 -0.153812
v -0.705810 1.224190 -0.076906
v -0.705810 1.224190 0.076906
v -0.924190 1.065810 -0.076906
v -0.800000 1.130000 0.153812
v -0.924190 1.065810 0.076906
v -0.894190 1.035810 0.076906
v -0.830000 1.160000 0.153812
v -0.800000 1.130000 -0.153812
v -0.735810 1.254190 0.076906
v -0.894190 1.035810 -0.076906
v -0.735810 1.254190 -0.076906
v -0.830000 1.160000 -0.200000
v -0.952474 1.037526 -0.100000
v -0.952474 1.037525 0.100000
v -0.830000 1.160000 0.200000
v -0.707525 1.282474 0.100000
v -0.707525 1.282475 -0.100000
v -0.943137 1.273137 -0.153812
v -0.914853 1.244853 -0.200000
v -1.037327 1.122378 -0.100000
v -1.037327 1.178947 -0.076906
v -1.037327 1.122378 0.100000
v -1.037327 1.178947 0.076906
v -0.914853 1.244853 0.200000
v -0.943137 1.273137 0.153812
v -0.792378 1.367327 0.100000
v -0.848947 1.367327 0.076906
v -0.792378 1.367327 -0.100000
v -0.848947 1.367327 -0.076906
v 1.000000 -1.110000 0.340000
v 0.840000 -1.270000 0.340000
v 0.840000 -1.110000 0.500000
v -0.840000 -1.110000 0.500000
v -0.840000 -1.270000 0.340000
v -1.000000 -1.110000 0.340000
v 0.840000 1.330000 0.340000
v 1.000000 1.170000 0.340000
v 0.840000 1.170000 0.500000
v -0.840000 0.863726 0.500000
v -1.000000 0.930000 0.340000
v -0.533726 1.170000 0.500000
v -0.600000 1.330000 0.340000
v -0.483200 -0.533200 0.500001
v -0.323200 -0.533200 0.500001
v -0.323200 -0.406337 0.500001
v 0.000000 -0.083137 0.499998
v 0.323200 -0.406337 0.499998
v 0.323200 -0.533200 0.500001
v 0.483200 -0.533199 0.499998
v 0.483200 -0.340063 0.500000
v 0.113137 0.030000 0.499999
v 0.000000 0.143137 0.499998
v -0.113137 0.030000 0.499999
v -0.483200 -0.340063 0.500001
v 0.483200 0.400063 0.500000
v 0.483200 0.593200 0.500000
v 0.323200 0.593200 0.500000
v 0.323200 0.466337 0.500000
v -0.483200 0.400063 0.500001
v -0.483200 0.593200 0.499998
v -0.323200 0.593200 0.499998
v -0.323200 0.466337 0.499998
v -0.323200 -0.373200 0.340001
v -0.483200 -0.533200 0.500001
v -0.483200 -0.373200 0.340001
v -0.323200 -0.533200 0.500001
v -0.483200 -0.340062 0.340002
v -0.323200 -0.406337 0.500001
v 0.000000 -0.083137 0.499998
v 0.000000 0.143137 0.339998
v 0.323200 -0.406337 0.499998
v 0.483200 -0.340062 0.339993
v 0.323200 -0.533200 0.500001
v 0.483200 -0.373199 0.339994
v 0.483200 -0.533199 0.499998
v 0.323200 -0.373200 0.340003
v 0.323200 -0.406337 0.339997
v 0.483200 -0.340063 0.500000
v 0.113137 0.030000 0.499999
v -0.113137 0.030001 0.339999
v 0.000000 0.143137 0.499998
v 0.000000 -0.083137 0.339998
v 0.113137 0.030001 0.339999
v -0.113137 0.030000 0.499999
v -0.483200 -0.340063 0.500001
v -0.323200 -0.406337 0.340000
v 0.483200 0.400063 0.500000
v 0.323200 0.466337 0.339999
v 0.483200 0.593200 0.500000
v 0.323200 0.433200 0.340000
v 0.323200 0.593200 0.500000
v 0.483200 0.433200 0.340000
v 0.323200 0.466337 0.500000
v 0.483200 0.400063 0.340001
v -0.323200 0.466337 0.339997
v -0.483200 0.400063 0.500001
v -0.323200 0.433200 0.340000
v -0.483200 0.593200 0.499998
v -0.483200 0.433200 0.339998
v -0.323200 0.593200 0.499998
v -0.483200 0.400063 0.339998
v -0.323200 0.466337 0.499998
v 1.000000 -1.110000 -0.340000
v 0.840000 -1.270000 -0.340000
v 0.840000 -1.110000 -0.500000
v -0.840000 -1.110000 -0.500000
v -0.840000 -1.270000 -0.340000
v -1.000000 -1.110000 -0.340000
v 0.840000 1.330000 -0.340000
v 1.000000 1.170000 -0.340000
v 0.840000 1.170000 -0.500000
v -0.840000 0.863726 -0.500000
v -1.000000 0.930000 -0.340000
v -0.533726 1.170000 -0.500000
v -0.600000 1.330000 -0.340000
v 0.839999 -1.110000 -0.500000
v -0.840001 -1.110000 -0.500000
v 0.839999 1.170000 -0.500001
v 0.839999 0.030000 -0.500000
v -0.840001 0.030000 -0.500000
v -0.483200 -0.533200 -0.500001
v -0.323200 -0.533200 -0.500001
v -0.323200 -0.406337 -0.500001
v 0.000000 -0.083137 -0.499998
v 0.323200 -0.406337 -0.499998
v 0.323200 -0.533200 -0.500001
v 0.483200 -0.533200 -0.499998
v 0.483200 -0.340063 -0.500000
v 0.113137 0.030000 -0.499999
v 0.000000 0.143137 -0.499998
v -0.113137 0.030000 -0.499999
v -0.483200 -0.340063 -0.500001
v 0.483200 0.400063 -0.500000
v 0.483200 0.593200 -0.500000
v 0.323200 0.593200 -0.500000
v 0.323200 0.466337 -0.500000
v -0.483200 0.400063 -0.500001
v -0.483200 0.593200 -0.499998
v -0.323200 0.593200 -0.499998
v -0.323200 0.466337 -0.499998
v -0.323200 -0.373200 -0.340001
v -0.483200 -0.533200 -0.500001
v -0.483200 -0.373200 -0.340001
v -0.323200 -0.533200 -0.500001
v -0.483200 -0.340062 -0.340002
v -0.323200 -0.406337 -0.500001
v 0.000000 -0.083137 -0.499998
v 0.000000 0.143137 -0.339998
v 0.323200 -0.406337 -0.499998
v 0.483200 -0.340062 -0.339993
v 0.323200 -0.533200 -0.500001
v 0.483200 -0.373200 -0.339994
v 0.483200 -0.533200 -0.499998
v 0.323200 -0.373200 -0.340003
v 0.323200 -0.406337 -0.339997
v 0.483200 -0.340063 -0.500000
v 0.113137 0.030000 -0.499999
v -0.113137 0.030000 -0.339999
v 0.000000 0.143137 -0.499998
v 0.000000 -0.083137 -0.339998
v 0.113137 0.030000 -0.339999
v -0.113137 0.030000 -0.499999
v -0.483200 -0.340063 -0.500001
v -0.323200 -0.406337 -0.340000
v 0.483200 0.400063 -0.500000
v 0.323200 0.466337 -0.339999
v 0.483200 0.593200 -0.500000
v 0.323200 0.433200 -0.340000
v 0.323200 0.593200 -0.500000
v 0.483200 0.433200 -0.340000
v 0.323200 0.466337 -0.500000
v 0.483200 0.400063 -0.340001
v -0.323200 0.466337 -0.339997
v -0.483200 0.400063 -0.500001
v -0.323200 0.433200 -0.340000
v -0.483200 0.593200 -0.499998
v -0.483200 0.433200 -0.339998
v -0.323200 0.593200 -0.499998
v -0.483200 0.400063 -0.339998
v -0.323200 0.466337 -0.499998

vt 0.000000 0.000000
vt 1.000000 0.000000
vt 0.000000 1.000000
vt 1.000000 1.000000

vn 0.353600 0.353600 0.866000
vn -0.353600 -0.353600 -0.866000
vn 0.707100 0.707100 0.000000
vn -0.707100 -0.707100 0.000000
vn 0.353600 0.353600 -0.866000
vn 0.707100 -0.707100 -0.000000
vn -0.353600 -0.353600 0.866000
vn -0.707100 0.707100 0.000000
vn -1.000000 0.000000 0.000000
vn 0.577400 -0.577400 0.577400
vn -0.577400 -0.577400 0.577400
vn 0.577400 0.577400 0.577400
vn 0.000000 -0.707100 0.707100
vn 0.707100 0.000000 0.707100
vn -0.500000 0.500000 0.707100
vn -0.707100 0.000000 0.707100
vn 0.000000 0.707100 0.707100
vn 0.000000 0.000000 1.000000
vn -0.000000 -0.000000 -1.000000
vn -0.227900 0.860400 0.455900
vn 0.500000 0.500000 0.707100
vn -0.986600 -0.109600 -0.121200
vn -0.500000 -0.500000 0.707100
vn 0.500000 -0.500000 0.707100
vn 0.995300 -0.061600 0.075300
vn 0.000000 1.000000 0.000000
vn 1.000000 0.000000 0.000000
vn 0.577400 -0.577400 -0.577400
vn -0.577400 -0.577400 -0.577400
vn 0.577400 0.577400 -0.577400
vn 0.000000 -0.707100 -0.707100
vn 0.707100 -0.000000 -0.707100
vn -0.500000 0.500000 -0.707100
vn -0.707100 -0.000000 -0.707100
vn 0.000000 0.707100 -0.707100
vn 0.000000 -1.000000 0.000000
vn -0.267300 0.801800 -0.534500
vn 0.500000 0.500000 -0.707100
vn -0.987200 -0.121200 0.103900
vn -0.500000 -0.500000 -0.707100
vn 0.500000 -0.500000 -0.707100
vn 0.996000 -0.079700 -0.039800
vn -0.750000 0.250000 -0.612400
vn -0.750000 0.250000 0.612400
vn -0.250000 0.750000 0.612400
vn -0.250000 0.750000 -0.612400
usemtl Material
s off
f 8/1/1 5/1/1 3/1/1 10/1/1
f 1/1/2 9/1/2 11/1/2 4/1/2
f 10/1/3 3/1/3 2/1/3 12/1/3
f 4/1/4 11/1/4 7/1/4 6/1/4
f 12/1/5 2/1/5 9/1/5 1/1/5
f 7/1/6 11/1/6 9/1/6 2/1/6 3/1/6 5/1/6
f 6/1/7 7/1/7 5/1/7 8/1/7
f 6/1/8 8/1/8 10/1/8 12/1/8 1/1/8 4/1/8
f 41/1/9 114/1/9 109/1/9 36/1/9
f 38/1/3 111/1/3 110/1/3 37/1/3
f 31/1/10 33/1/10 32/1/10
f 34/1/11 36/1/11 35/1/11
f 37/1/12 39/1/12 38/1/12
f 32/1/13 33/1/13 34/1/13 35/1/13
f 36/1/4 109/1/4 108/1/4 35/1/4
f 33/1/14 31/1/14 38/1/14 39/1/14
f 42/1/15 43/1/15 41/1/15 40/1/15
f 36/1/16 34/1/16 40/1/16 41/1/16
f 43/1/17 42/1/17 39/1/17 37/1/17
f 34/1/18 33/1/18 50/1/18 49/1/18 48/1/18 47/1/18 46/1/18 45/1/18 44/1/18
f 83/1/19 102/1/19 100/1/19 98/1/19 96/1/19 84/1/19
f 73/1/19 75/1/19 77/1/19 78/1/19 81/1/19 71/1/19
f 40/1/18 34/1/18 44/1/18 55/1/18 54/1/18 60/1/18 61/1/18 62/1/18 63/1/18 53/1/18 59/1/18 58/1/18 57/1/18 56/1/18 52/1/18 51/1/18 50/1/18 33/1/18 39/1/18 42/1/18
f 61/1/18 60/1/18 97/1/18 99/1/18
f 46/1/18 47/1/18 70/1/18 69/1/18
f 52/1/18 56/1/18 88/1/18 80/1/18
f 59/1/18 53/1/18 82/1/18 94/1/18
f 53/1/18 63/1/18 103/1/18 82/1/18
f 47/1/18 48/1/18 72/1/18 70/1/18
f 83/1/18 84/1/18 71/1/18 81/1/18
f 55/1/18 44/1/18 65/1/18 86/1/18
f 48/1/18 49/1/18 74/1/18 72/1/18
f 54/1/18 55/1/18 86/1/18 85/1/18
f 56/1/18 57/1/18 90/1/18 88/1/18
f 49/1/18 50/1/18 76/1/18 74/1/18
f 62/1/18 61/1/18 99/1/18 101/1/18
f 44/1/18 45/1/18 67/1/18 65/1/18
f 50/1/18 51/1/18 79/1/18 76/1/18
f 63/1/18 62/1/18 101/1/18 103/1/18
f 81/1/19 89/1/19 91/1/19 93/1/19 95/1/19 83/1/19
f 57/1/18 58/1/18 92/1/18 90/1/18
f 51/1/18 52/1/18 80/1/18 79/1/18
f 60/1/18 54/1/18 85/1/18 97/1/18
f 45/1/18 46/1/18 69/1/18 67/1/18
f 58/1/18 59/1/18 94/1/18 92/1/18
f 66/1/20 64/1/20 65/1/20 67/1/20
f 68/1/16 66/1/16 67/1/16 69/1/16
f 71/1/15 68/1/15 69/1/15 70/1/15
f 73/1/21 71/1/21 70/1/21 72/1/21
f 75/1/14 73/1/14 72/1/14 74/1/14
f 77/1/22 75/1/22 74/1/22 76/1/22
f 76/1/16 79/1/16 78/1/16 77/1/16
f 81/1/23 78/1/23 79/1/23 80/1/23
f 87/1/24 84/1/24 85/1/24 86/1/24
f 64/1/14 87/1/14 86/1/14 65/1/14
f 80/1/15 88/1/15 89/1/15 81/1/15
f 91/1/16 89/1/16 88/1/16 90/1/16
f 93/1/6 91/1/6 90/1/6 92/1/6
f 95/1/14 93/1/14 92/1/14 94/1/14
f 83/1/24 95/1/24 94/1/24 82/1/24
f 84/1/21 96/1/21 97/1/21 85/1/21
f 99/1/14 97/1/14 96/1/14 98/1/14
f 101/1/25 99/1/25 98/1/25 100/1/25
f 103/1/16 101/1/16 100/1/16 102/1/16
f 82/1/23 103/1/23 102/1/23 83/1/23
f 66/1/19 68/1/19 71/1/19 84/1/19 87/1/19 64/1/19
f 37/1/26 110/1/26 116/1/26 43/1/26
f 31/1/27 104/1/27 111/1/27 38/1/27
f 104/1/28 105/1/28 106/1/28
f 107/1/29 108/1/29 109/1/29
f 110/1/30 111/1/30 112/1/30
f 105/1/31 108/1/31 107/1/31 106/1/31
f 43/1/8 116/1/8 114/1/8 41/1/8
f 106/1/32 112/1/32 111/1/32 104/1/32
f 115/1/33 113/1/33 114/1/33 116/1/33
f 109/1/34 114/1/34 113/1/34 107/1/34
f 116/1/35 110/1/35 112/1/35 115/1/35
f 107/1/19 122/1/19 123/1/19 124/1/19 125/1/19 126/1/19 127/1/19 128/1/19 106/1/19
f 32/1/6 105/1/6 104/1/6 31/1/6
f 35/1/36 108/1/36 105/1/36 32/1/36
f 161/1/18 162/1/18 174/1/18 176/1/18 178/1/18 180/1/18
f 151/1/18 149/1/18 159/1/18 156/1/18 155/1/18 153/1/18
f 113/1/19 115/1/19 112/1/19 106/1/19 128/1/19 129/1/19 130/1/19 134/1/19 135/1/19 136/1/19 137/1/19 131/1/19 141/1/19 140/1/19 139/1/19 138/1/19 132/1/19 133/1/19 122/1/19 107/1/19
f 139/1/18 177/1/18 175/1/18 138/1/18
f 124/1/18 147/1/18 148/1/18 125/1/18
f 130/1/18 158/1/18 166/1/18 134/1/18
f 137/1/18 172/1/18 160/1/18 131/1/18
f 131/1/18 160/1/18 181/1/18 141/1/18
f 125/1/18 148/1/18 150/1/18 126/1/18
f 161/1/19 159/1/19 149/1/19 162/1/19
f 133/1/18 164/1/18 143/1/18 122/1/18
f 126/1/18 150/1/18 152/1/18 127/1/18
f 132/1/18 163/1/18 164/1/18 133/1/18
f 134/1/18 166/1/18 168/1/18 135/1/18
f 127/1/18 152/1/18 154/1/18 128/1/18
f 140/1/18 179/1/18 177/1/18 139/1/18
f 122/1/18 143/1/18 145/1/18 123/1/18
f 128/1/18 154/1/18 157/1/18 129/1/18
f 141/1/18 181/1/18 179/1/18 140/1/18
f 159/1/18 161/1/18 173/1/18 171/1/18 169/1/18 167/1/18
f 135/1/18 168/1/18 170/1/18 136/1/18
f 129/1/18 157/1/18 158/1/18 130/1/18
f 138/1/18 175/1/18 163/1/18 132/1/18
f 123/1/18 145/1/18 147/1/18 124/1/18
f 136/1/18 170/1/18 172/1/18 137/1/18
f 144/1/37 145/1/37 143/1/37 142/1/37
f 146/1/34 147/1/34 145/1/34 144/1/34
f 149/1/33 148/1/33 147/1/33 146/1/33
f 151/1/38 150/1/38 148/1/38 149/1/38
f 153/1/32 152/1/32 150/1/32 151/1/32
f 155/1/39 154/1/39 152/1/39 153/1/39
f 154/1/34 155/1/34 156/1/34 157/1/34
f 159/1/40 158/1/40 157/1/40 156/1/40
f 165/1/41 164/1/41 163/1/41 162/1/41
f 142/1/32 143/1/32 164/1/32 165/1/32
f 158/1/33 159/1/33 167/1/33 166/1/33
f 169/1/34 168/1/34 166/1/34 167/1/34
f 171/1/19 170/1/19 168/1/19 169/1/19
f 173/1/32 172/1/32 170/1/32 171/1/32
f 161/1/41 160/1/41 172/1/41 173/1/41
f 162/1/38 163/1/38 175/1/38 174/1/38
f 177/1/32 176/1/32 174/1/32 175/1/32
f 179/1/42 178/1/42 176/1/42 177/1/42
f 181/1/34 180/1/34 178/1/34 179/1/34
f 160/1/40 161/1/40 180/1/40 181/1/40
f 144/1/18 142/1/18 165/1/18 162/1/18 149/1/18 146/1/18
usemtl Material.001
f 14/1/6 13/1/6 18/1/6 17/1/6 16/1/6 15/1/6
f 18/1/5 13/1/5 20/1/5 29/1/5
f 14/1/4 15/1/4 23/1/4 21/1/4
f 15/1/7 16/1/7 25/1/7 23/1/7
f 16/1/1 17/1/1 27/1/1 25/1/1
f 17/1/3 18/1/3 29/1/3 27/1/3
f 13/1/2 14/1/2 21/1/2 20/1/2
f 22/1/43 19/1/43 20/1/43 21/1/43
f 24/1/9 22/1/9 21/1/9 23/1/9
f 26/1/44 24/1/44 23/1/44 25/1/44
f 28/1/45 26/1/45 25/1/45 27/1/45
f 30/1/26 28/1/26 27/1/26 29/1/26
f 19/1/46 30/1/46 29/1/46 20/1/46
f 24/1/8 26/1/8 28/1/8 30/1/8 19/1/8 22/1/8
l 117 118
l 120 117
l 119 120
l 118 121
l 113 121
l 119 115
