# Blender v2.76 (sub 0) OBJ File: ''
# www.blender.org
mtllib terrain.mtl
o Plane
v -8.000000 -0.400000 8.000000
v 8.000000 -0.086425 8.000000
v -8.000000 -0.400000 -8.000000
v 8.000000 -0.285167 -8.000000
v -8.000000 -0.400000 -6.000000
v -8.000000 -0.400000 -4.000000
v -8.000000 -0.400000 -2.000000
v -8.000000 -0.251065 0.000000
v -8.000000 -0.400000 2.000000
v -8.000000 -0.400000 4.000000
v -8.000000 -0.400000 6.000000
v -6.000000 -0.400000 8.000000
v -4.000000 -0.400000 8.000000
v -2.000000 -0.273678 8.000000
v 0.000000 -0.377698 8.000000
v 2.000000 -0.320145 8.000000
v 4.000000 -0.400000 8.000000
v 6.000000 -0.400000 8.000000
v 8.000000 -0.400000 6.000000
v 8.000000 -0.400000 4.000000
v 8.000000 -0.400000 2.000000
v 8.000000 -0.400000 0.000000
v 8.000000 -0.400000 -2.000000
v 8.000000 -0.400000 -4.000000
v 8.000000 -0.400000 -6.000000
v 6.000000 -0.400000 -8.000000
v 4.000000 -0.303913 -8.000000
v 2.000000 -0.400000 -8.000000
v 0.000000 -0.400000 -8.000000
v -2.000000 0.148849 -8.000000
v -4.000000 -0.168115 -8.000000
v -6.000000 -0.400000 -8.000000
v -6.000000 -0.400000 6.000000
v -6.000000 -0.400000 4.000000
v -6.000000 -0.138676 2.000000
v -6.000000 -0.400000 0.000000
v -6.000000 0.124916 -2.000000
v -6.000000 -0.400000 -4.000000
v -6.000000 -0.342631 -6.000000
v -4.000000 -0.400000 6.000000
v -4.000000 -0.400000 4.000000
v -4.000000 -0.110987 2.000000
v -4.000000 -0.400000 0.000000
v -4.000000 -0.238685 -2.000000
v -4.000000 -0.207650 -4.000000
v -4.000000 -0.400000 -6.000000
v -2.000000 0.033621 6.000000
v -2.000000 -0.400000 4.000000
v -2.000000 -0.400000 2.000000
v -2.000000 -0.114803 0.000000
v -2.000000 -0.400000 -2.000000
v -2.000000 -0.299880 -4.000000
v -2.000000 -0.053538 -6.000000
v 0.000000 -0.400000 6.000000
v 0.000000 -0.327223 4.000000
v 0.000000 -0.400000 2.000000
v 0.000000 -0.400000 0.000000
v 0.000000 -0.400000 -2.000000
v 0.000000 -0.400000 -4.000000
v 0.000000 0.016471 -6.000000
v 2.000000 -0.195854 6.000000
v 2.000000 -0.382125 4.000000
v 2.000000 -0.400000 2.000000
v 2.000000 -0.087935 0.000000
v 2.000000 -0.324208 -2.000000
v 2.000000 -0.305452 -4.000000
v 2.000000 -0.134355 -6.000000
v 4.000000 -0.400000 6.000000
v 4.000000 -0.400000 4.000000
v 4.000000 0.088136 2.000000
v 4.000000 -0.400000 0.000000
v 4.000000 -0.154857 -2.000000
v 4.000000 -0.165084 -4.000000
v 4.000000 -0.400000 -6.000000
v 6.000000 -0.400000 6.000000
v 6.000000 -0.400000 4.000000
v 6.000000 0.046324 2.000000
v 6.000000 -0.277550 0.000000
v 6.000000 -0.386890 -2.000000
v 6.000000 -0.286199 -4.000000
v 6.000000 -0.280574 -6.000000
vn 0.001100 1.000000 -0.001100
vn -0.014300 0.999800 -0.014300
vn -0.043500 0.998100 0.043500
vn -0.162700 0.980900 0.106500
vn 0.118700 0.991500 -0.053100
vn 0.037100 0.985100 -0.168000
vn 0.042300 0.998200 -0.042300
vn -0.005800 1.000000 -0.005800
vn 0.000000 1.000000 0.000000
vn -0.065100 0.995800 0.065100
vn -0.028100 0.999200 -0.028100
vn -0.093200 0.991300 0.093200
vn -0.129000 0.983200 -0.129000
vn -0.014300 0.999800 0.014300
vn -0.006900 0.990600 0.136300
vn -0.006900 0.990600 -0.136300
vn 0.089200 0.981700 0.168400
vn 0.042500 0.991600 -0.122400
vn -0.033700 0.998900 -0.033700
vn -0.138200 0.987500 0.075900
vn -0.107200 0.988500 -0.107200
vn 0.071900 0.994800 0.071900
vn 0.001000 1.000000 -0.001000
vn -0.030900 0.999000 -0.030900
vn 0.063200 0.997500 0.032700
vn -0.063400 0.997900 0.013500
vn 0.132900 0.988600 0.070400
vn 0.089500 0.992000 -0.089500
vn -0.018200 0.999700 -0.018200
vn 0.070900 0.995000 0.070900
vn 0.070900 0.995000 -0.070900
vn 0.025000 0.999400 0.025000
vn 0.007400 0.986500 0.163500
vn -0.065300 0.997500 0.025400
vn -0.037300 0.998900 -0.028300
vn 0.013700 0.999600 -0.022700
vn -0.077500 0.994000 0.077500
vn -0.096300 0.993600 -0.058700
vn -0.042500 0.999100 0.004700
vn 0.013900 0.989300 0.145300
vn 0.070800 0.997000 0.031000
vn 0.055400 0.997400 -0.046400
vn -0.116000 0.986500 0.116000
vn -0.043900 0.998100 -0.043900
vn 0.035700 0.999400 0.002200
vn -0.077200 0.997000 0.002100
vn 0.031300 0.999400 -0.015900
vn 0.010200 0.973700 0.227500
vn -0.019800 0.979800 -0.198900
vn 0.027400 0.999000 0.033900
vn 0.087900 0.995900 0.022500
vn 0.000400 0.998400 -0.057200
vn -0.077900 0.993900 -0.077900
vn 0.110200 0.987800 0.110200
vn 0.140300 0.986900 -0.079900
vn 0.033900 0.999100 -0.027300
vn 0.031700 0.999200 0.025200
vn 0.058200 0.998300 0.001400
usemtl None
s off
f 81//1 25//1 4//1 26//1
f 5//2 39//2 32//2 3//2
f 39//3 46//3 31//3 32//3
f 46//4 53//4 30//4 31//4
f 53//5 60//5 29//5 30//5
f 60//6 67//6 28//6 29//6
f 67//7 74//7 27//7 28//7
f 74//8 81//8 26//8 27//8
f 1//9 12//9 33//9 11//9
f 11//9 33//9 34//9 10//9
f 10//10 34//10 35//10 9//10
f 9//11 35//11 36//11 8//11
f 8//12 36//12 37//12 7//12
f 7//13 37//13 38//13 6//13
f 6//14 38//14 39//14 5//14
f 12//9 13//9 40//9 33//9
f 33//9 40//9 41//9 34//9
f 34//15 41//15 42//15 35//15
f 35//16 42//16 43//16 36//16
f 36//17 43//17 44//17 37//17
f 37//18 44//18 45//18 38//18
f 38//19 45//19 46//19 39//19
f 13//20 14//20 47//20 40//20
f 40//21 47//21 48//21 41//21
f 41//22 48//22 49//22 42//22
f 42//23 49//23 50//23 43//23
f 43//24 50//24 51//24 44//24
f 44//25 51//25 52//25 45//25
f 45//26 52//26 53//26 46//26
f 14//27 15//27 54//27 47//27
f 47//28 54//28 55//28 48//28
f 48//29 55//29 56//29 49//29
f 49//30 56//30 57//30 50//30
f 50//31 57//31 58//31 51//31
f 51//32 58//32 59//32 52//32
f 52//33 59//33 60//33 53//33
f 15//34 16//34 61//34 54//34
f 54//35 61//35 62//35 55//35
f 55//36 62//36 63//36 56//36
f 56//37 63//37 64//37 57//37
f 57//38 64//38 65//38 58//38
f 58//39 65//39 66//39 59//39
f 59//40 66//40 67//40 60//40
f 16//41 17//41 68//41 61//41
f 61//42 68//42 69//42 62//42
f 62//43 69//43 70//43 63//43
f 63//44 70//44 71//44 64//44
f 64//45 71//45 72//45 65//45
f 65//46 72//46 73//46 66//46
f 66//47 73//47 74//47 67//47
f 17//9 18//9 75//9 68//9
f 68//9 75//9 76//9 69//9
f 69//48 76//48 77//48 70//48
f 70//49 77//49 78//49 71//49
f 71//50 78//50 79//50 72//50
f 72//51 79//51 80//51 73//51
f 73//52 80//52 81//52 74//52
f 18//53 2//53 19//53 75//53
f 75//9 19//9 20//9 76//9
f 76//54 20//54 21//54 77//54
f 77//55 21//55 22//55 78//55
f 78//56 22//56 23//56 79//56
f 79//57 23//57 24//57 80//57
f 80//58 24//58 25//58 81//58
